<svg width="40" height="40" viewBox="0 0 40 40" fill="none" xmlns="http://www.w3.org/2000/svg">
<g clip-path="url(#clip0_4_2319)">
<path fill-rule="evenodd" clip-rule="evenodd" d="M14.4147 10.0699C14.8572 10.0237 15.3061 10 15.7604 10C21.8362 10 26.9576 14.2372 28.5263 20.0173C28.6518 20.0092 28.7781 20.0039 28.9051 20.0015C28.8535 20.0006 28.8018 20.0001 28.75 20.0001L28.708 20.0002L28.708 20H30.625H30.7002V19.9994C33.0818 19.9592 35 18.0161 35 15.625C35 13.2088 33.0412 11.25 30.625 11.25C29.8137 11.25 29.054 11.4708 28.4027 11.8556C28.4008 11.1572 28.2947 10.4833 28.0992 9.84857C27.1252 7.02683 24.4459 5 21.2931 5C18.0586 5 15.3223 7.13345 14.4147 10.0699ZM33.9708 21.6323C36.1077 23.2198 37.5 25.8163 37.5 28.75C37.5 33.5825 33.722 37.5 29.0616 37.5C28.9573 37.5 28.8534 37.498 28.75 37.4941V37.5H15.9589V37.4985C15.8928 37.4995 15.8267 37.5 15.7604 37.5C8.43686 37.5 2.5 31.3439 2.5 23.75C2.5 17.6179 6.37117 12.4234 11.7176 10.6507C12.4586 6.03008 16.4636 2.5 21.2931 2.5C25.4367 2.5 28.9734 5.09855 30.3624 8.75492C30.4495 8.75165 30.537 8.75 30.625 8.75C34.4219 8.75 37.5 11.828 37.5 15.625C37.5 18.2074 36.0762 20.4572 33.9708 21.6323ZM28.75 35H15.9589H15.815V34.9999L15.7604 35C9.90224 35 5 30.0494 5 23.75C5 17.4506 9.90224 12.5 15.7604 12.5C20.7298 12.5 25.0114 16.0626 26.1961 20.9889L26.1998 20.9874C26.3671 21.6709 26.4738 22.3796 26.5135 23.1068C27.2924 22.7165 28.159 22.5 29.0616 22.5C32.2566 22.5 35 25.212 35 28.75C35 32.2632 32.2949 34.9619 29.1287 34.9996V35H28.75Z" fill="#252422"/>
</g>
<defs>
<clipPath id="clip0_4_2319">
<rect width="40" height="40" fill="white"/>
</clipPath>
</defs>
</svg>
