<svg width="40" height="40" viewBox="0 0 40 40" fill="none" xmlns="http://www.w3.org/2000/svg">
<path fill-rule="evenodd" clip-rule="evenodd" d="M18.75 6.25V2.5H21.25V6.25H18.75ZM25.7925 7.46726L27.6675 4.21967L29.8326 5.46967L27.9576 8.71726L25.7925 7.46726ZM20 28.75C24.8325 28.75 28.75 24.8325 28.75 20C28.75 15.1675 24.8325 11.25 20 11.25C15.1675 11.25 11.25 15.1675 11.25 20C11.25 24.8325 15.1675 28.75 20 28.75ZM20 31.25C26.2132 31.25 31.25 26.2132 31.25 20C31.25 13.7868 26.2132 8.75 20 8.75C13.7868 8.75 8.75 13.7868 8.75 20C8.75 26.2132 13.7868 31.25 20 31.25ZM33.75 18.75H37.5V21.25H33.75V18.75ZM34.5304 10.1675L31.2828 12.0425L32.5328 14.2075L35.7804 12.3325L34.5304 10.1675ZM10.1675 5.46967L12.0425 8.71726L14.2075 7.46726L12.3325 4.21967L10.1675 5.46967ZM7.46718 14.2075L4.21959 12.3325L5.46959 10.1675L8.71718 12.0425L7.46718 14.2075ZM18.75 33.75V37.5H21.25V33.75H18.75ZM6.25 18.75H2.5V21.25H6.25V18.75ZM4.21952 27.6675L7.46712 25.7925L8.71712 27.9575L5.46952 29.8325L4.21952 27.6675ZM12.0425 31.283L10.1675 34.5306L12.3326 35.7806L14.2076 32.533L12.0425 31.283ZM27.6675 35.7806L25.7925 32.533L27.9575 31.283L29.8325 34.5306L27.6675 35.7806ZM31.2829 27.9575L34.5305 29.8325L35.7805 27.6675L32.5329 25.7925L31.2829 27.9575Z" fill="currentColor"/>
</svg>
