<svg width="32" height="32" viewBox="0 0 32 32" fill="none" xmlns="http://www.w3.org/2000/svg">
<path fill-rule="evenodd" clip-rule="evenodd" d="M23.3221 20.3638C23.3221 23.1811 20.3737 26 15.9859 26C11.5981 26 8.64976 23.1811 8.64976 20.3638C8.64976 17.4416 10.6416 13.8024 12.9828 10.6343C14.041 9.20239 15.103 7.95509 15.9335 7.03368C16.7798 8.02709 17.8779 9.37938 18.972 10.9055C20.1128 12.4967 21.2224 14.2398 22.04 15.9363C22.8726 17.6638 23.3221 19.1806 23.3221 20.3638ZM6.55371 20.3638C6.55371 14.927 11.9314 8.37097 14.5656 5.48563C15.4201 4.5497 15.9859 4 15.9859 4C15.9859 4 16.528 4.57177 17.3522 5.52955C19.9662 8.56699 25.4181 15.4867 25.4181 20.3638C25.4181 24.5812 21.1952 28 15.9859 28C10.7767 28 6.55371 24.5812 6.55371 20.3638ZM11.2681 17H13.523C13.0987 17.9239 12.8418 18.8001 12.8418 19.5455C12.8418 20.6901 14.0152 22 15.9859 22V24C13.0919 24 10.7458 22.0057 10.7458 19.5455C10.7458 18.7246 10.946 17.86 11.2681 17Z" fill="#3F3B3E"/>
</svg>
