<svg width="40" height="40" viewBox="0 0 40 40" fill="none" xmlns="http://www.w3.org/2000/svg">
<path fill-rule="evenodd" clip-rule="evenodd" d="M18.75 6.25V2.5H21.25V6.25H18.75ZM28.5774 27.2798C29.4663 28.3594 30 29.7423 30 31.2498C30 34.7016 27.2018 37.4999 23.75 37.4999L23.7042 37.4997H14.4234V37.4996L14.375 37.4997C9.19734 37.4997 5 33.3024 5 28.1247C5 25.0502 6.47996 22.3214 8.76635 20.6118C8.7555 20.4092 8.75 20.2052 8.75 20C8.75 13.7868 13.7868 8.75 20 8.75C26.2132 8.75 31.25 13.7868 31.25 20C31.25 22.7763 30.2443 25.3177 28.5774 27.2798ZM26.6353 25.7042C25.7721 25.2542 24.7908 24.9998 23.75 24.9998C22.6932 24.9998 21.6976 25.2622 20.8248 25.7252C21.1031 26.4724 21.2552 27.2809 21.2552 28.125C21.2552 28.2363 21.2526 28.3471 21.2473 28.4571C21.9111 27.8619 22.7883 27.4998 23.75 27.4998C25.8211 27.4998 27.5 29.1788 27.5 31.2498C27.5 33.3209 25.8211 34.9999 23.75 34.9999V34.9997H23.7145L23.6665 34.9989H14.4791C14.4445 34.9995 14.4098 34.9997 14.375 34.9997C10.578 34.9997 7.5 31.9217 7.5 28.1247C7.5 24.3277 10.578 21.2497 14.375 21.2497C17.3288 21.2497 19.8476 23.1125 20.8205 25.7274C21.5482 25.3406 22.3613 25.0934 23.2243 25.0216C21.9435 21.3689 18.4651 18.7497 14.375 18.7497C13.2904 18.7497 12.2488 18.9339 11.2798 19.2727C11.6494 14.7805 15.4124 11.25 20 11.25C24.8325 11.25 28.75 15.1675 28.75 20C28.75 22.1793 27.9533 24.1725 26.6353 25.7042ZM37.5 18.75H33.75V21.25H37.5V18.75ZM31.2828 12.0425L34.5304 10.1675L35.7804 12.3325L32.5328 14.2075L31.2828 12.0425ZM27.6675 4.21967L25.7925 7.46726L27.9576 8.71726L29.8326 5.46967L27.6675 4.21967ZM12.0425 8.71726L10.1675 5.46967L12.3325 4.21967L14.2075 7.46726L12.0425 8.71726ZM4.21959 12.3325L7.46718 14.2075L8.71718 12.0425L5.46959 10.1675L4.21959 12.3325ZM2.5 18.75H6.25V21.25H2.5V18.75ZM31.2829 27.9575L34.5305 29.8325L35.7805 27.6675L32.5329 25.7925L31.2829 27.9575Z" fill="currentColor"/>
</svg>
