<svg width="32" height="32" viewBox="0 0 32 32" fill="none" xmlns="http://www.w3.org/2000/svg">
<path d="M27.4984 26.7191L20.2352 19.3847C21.5889 17.7575 22.4048 15.6639 22.4048 13.378C22.4048 8.1987 18.2214 4 13.0609 4C7.90049 4 3.71704 8.1987 3.71704 13.378C3.71704 18.5572 7.90049 22.7559 13.0609 22.7559C15.4055 22.7559 17.5471 21.8871 19.1879 20.4549L26.441 27.7803C26.7329 28.0732 27.2065 28.0732 27.4984 27.7803C27.7899 27.4873 27.7899 27.0124 27.4984 26.7191H27.4984ZM13.0609 21.2678C8.71939 21.2678 5.19973 17.7353 5.19973 13.378C5.19973 9.02058 8.71939 5.48809 13.0609 5.48809C17.4025 5.48809 20.9221 9.02058 20.9221 13.378C20.9221 17.7353 17.4025 21.2678 13.0609 21.2678Z" fill="currentColor"/>
</svg>
