<svg width="40" height="40" viewBox="0 0 40 40" fill="none" xmlns="http://www.w3.org/2000/svg">
<path fill-rule="evenodd" clip-rule="evenodd" d="M34.9999 21.3852C34.9999 24.2262 33.152 26.6099 30.625 27.413V29.9999C34.5564 29.1349 37.4999 25.6064 37.4999 21.3852C37.4999 16.5153 33.5824 12.5675 28.7499 12.5675C28.502 12.5675 28.2565 12.5779 28.0138 12.5983C26.2206 7.44515 21.351 3.75 15.625 3.75C8.37626 3.75 2.5 9.67171 2.5 16.9765C2.5 22.4972 5.85639 27.2279 10.625 29.2094V26.4428C7.28267 24.6399 5 21.085 5 16.9765C5 11.0342 9.7751 6.25 15.625 6.25C20.1543 6.25 24.0392 9.11795 25.5625 13.1708L25.5729 13.1668C25.8618 13.9489 26.0643 14.7742 26.1686 15.6305C26.9568 15.2687 27.8313 15.0675 28.7499 15.0675C32.1836 15.0675 34.9999 17.8778 34.9999 21.3852ZM28.75 22.5H16.25V25H28.75V22.5ZM26.25 27.5H13.75V30H26.25V27.5ZM16.25 32.5H28.75V35H16.25V32.5Z" fill="#252422"/>
</svg>
