<svg width="40" height="40" viewBox="0 0 40 40" fill="none" xmlns="http://www.w3.org/2000/svg">
<path fill-rule="evenodd" clip-rule="evenodd" d="M37.5 21.25C37.5 25.7536 34.2188 29.4625 30 29.9465V27.4212C32.7756 26.9519 35 24.4358 35 21.25C35 17.712 32.2566 15 29.0616 15C28.159 15 27.2924 15.2165 26.5135 15.6068C26.4738 14.8796 26.3671 14.1709 26.1998 13.4874L26.1961 13.4889C25.0114 8.56255 20.7298 5 15.7604 5C9.90224 5 5 9.95058 5 16.25C5 21.3322 8.19076 25.5364 12.5 26.9715V29.5813C6.75297 28.0747 2.5 22.6774 2.5 16.25C2.5 8.65608 8.43686 2.5 15.7604 2.5C18.3284 2.5 20.726 3.25697 22.7568 4.56746C24.3151 3.27617 26.3156 2.5 28.4975 2.5C33.4695 2.5 37.5001 6.53061 37.5001 11.5026C37.5001 13.2976 36.9748 14.9699 36.0695 16.3741C36.9729 17.7674 37.5 19.4449 37.5 21.25ZM34.3182 14.4047C34.7546 13.5311 35.0001 12.5455 35.0001 11.5026C35.0001 7.91132 32.0888 5 28.4975 5C27.1141 5 25.8316 5.43199 24.7776 6.16842C26.5398 7.86389 27.8567 10.05 28.5263 12.5173C28.7033 12.5058 28.8818 12.5 29.0616 12.5C31.0492 12.5 32.8762 13.2125 34.3182 14.4047ZM17.5026 34.3201C17.5028 34.7401 17.1803 35.0027 16.8776 35.0027C16.5749 35.0027 16.2522 34.7401 16.2521 34.3201C16.2519 33.7846 16.4691 33.0546 16.843 32.2422C16.9683 32.5057 17.0821 32.7671 17.1794 33.021C17.4236 33.6578 17.5026 34.09 17.5026 34.3201ZM16.8753 27.5C16.8753 27.5 16.1286 28.4128 15.3654 29.6966C14.5675 31.0387 13.7516 32.7862 13.7521 34.3201C13.7526 36.0778 15.1523 37.5027 16.8783 37.5027C18.6044 37.5027 20.0032 36.0778 20.0026 34.3201C20.0022 32.9224 19.1475 31.1221 18.3319 29.7222C17.5873 28.4443 16.8753 27.5 16.8753 27.5ZM24.3776 31.2527C24.6803 31.2527 25.0028 30.9901 25.0026 30.5701C25.0026 30.34 24.9236 29.9078 24.6794 29.271C24.5821 29.0171 24.4683 28.7557 24.343 28.4922C23.9691 29.3046 23.7519 30.0346 23.7521 30.5701C23.7522 30.9901 24.0749 31.2527 24.3776 31.2527ZM22.8654 25.9466C23.6286 24.6628 24.3753 23.75 24.3753 23.75C24.3753 23.75 25.0873 24.6943 25.8319 25.9722C26.6475 27.3721 27.5022 29.1724 27.5026 30.5701C27.5032 32.3278 26.1044 33.7527 24.3783 33.7527C22.6523 33.7527 21.2526 32.3278 21.2521 30.5701C21.2516 29.0362 22.0675 27.2887 22.8654 25.9466Z" fill="#252422"/>
</svg>
