<svg width="40" height="40" viewBox="0 0 40 40" fill="none" xmlns="http://www.w3.org/2000/svg">
<path fill-rule="evenodd" clip-rule="evenodd" d="M15.9589 37.4985C15.8928 37.4995 15.8266 37.5 15.7604 37.5C8.43686 37.5 2.5 31.3439 2.5 23.75C2.5 16.1561 8.43686 10 15.7604 10C21.8362 10 26.9576 14.2372 28.5263 20.0173C28.7033 20.0058 28.8818 20 29.0616 20C33.722 20 37.5 23.9175 37.5 28.75C37.5 33.5825 33.722 37.5 29.0616 37.5C28.9573 37.5 28.8534 37.498 28.75 37.4941V37.5H15.9589V37.4985ZM29.1287 35C32.2949 34.9624 35 32.2632 35 28.75C35 25.212 32.2566 22.5 29.0616 22.5C28.159 22.5 27.2924 22.7165 26.5135 23.1068C26.4738 22.3796 26.3671 21.6709 26.1998 20.9874L26.1961 20.9889C25.0114 16.0626 20.7298 12.5 15.7604 12.5C9.90224 12.5 5 17.4506 5 23.75C5 30.0494 9.90224 35 15.7604 35L15.815 34.9999L29.1287 35Z" fill="currentColor"/>
</svg>
