<svg width="40" height="40" viewBox="0 0 40 40" fill="none" xmlns="http://www.w3.org/2000/svg">
<path fill-rule="evenodd" clip-rule="evenodd" d="M31.25 29.7028C34.8495 28.7034 37.5 25.2976 37.5 21.25C37.5 19.4449 36.9729 17.7674 36.0695 16.3741C36.9748 14.9699 37.5001 13.2976 37.5001 11.5026C37.5001 6.53061 33.4695 2.5 28.4975 2.5C26.3156 2.5 24.3151 3.27617 22.7568 4.56746C20.726 3.25697 18.3284 2.5 15.7604 2.5C8.43686 2.5 2.5 8.65608 2.5 16.25C2.5 21.7034 5.56173 26.4154 10 28.6384V25.7503C7.01274 23.769 5 20.2864 5 16.25C5 9.95058 9.90224 5 15.7604 5C20.7298 5 25.0114 8.56255 26.1961 13.4889L26.1998 13.4874C26.3671 14.1709 26.4738 14.8796 26.5135 15.6068C27.2924 15.2165 28.159 15 29.0616 15C32.2566 15 35 17.712 35 21.25C35 23.9398 33.4143 26.1522 31.25 27.0584V29.7028ZM24.7776 6.16842C26.5398 7.86389 27.8567 10.05 28.5263 12.5173C28.7033 12.5058 28.8818 12.5 29.0616 12.5C31.0492 12.5 32.8762 13.2125 34.3182 14.4047C34.7546 13.5311 35.0001 12.5455 35.0001 11.5026C35.0001 7.91132 32.0888 5 28.4975 5C27.1141 5 25.8316 5.43199 24.7776 6.16842ZM12.9511 26.1556C12.6916 26.7635 12.5011 27.4135 12.5013 28.0114C12.5016 29.1097 13.3414 30 14.3769 30C15.4125 30 16.2516 29.1097 16.2513 28.0114C16.2511 27.4523 16.0409 26.7901 15.7613 26.1565C15.2053 24.8969 14.375 23.75 14.375 23.75C14.375 23.75 13.5055 24.857 12.9511 26.1556ZM18.7513 28.0114C18.7511 27.4135 18.9416 26.7635 19.2011 26.1556C19.7555 24.857 20.625 23.75 20.625 23.75C20.625 23.75 21.4553 24.8969 22.0113 26.1565C22.2909 26.7901 22.5011 27.4523 22.5013 28.0114C22.5016 29.1097 21.6625 30 20.6269 30C19.5914 30 18.7516 29.1097 18.7513 28.0114ZM16.5443 32.4056C16.2847 33.0135 16.0943 33.6635 16.0944 34.2614C16.0948 35.3597 16.9345 36.25 17.9701 36.25C19.0056 36.25 19.8448 35.3597 19.8444 34.2614C19.8443 33.7023 19.6341 33.0401 19.3544 32.4065C18.7985 31.1469 17.9681 30 17.9681 30C17.9681 30 17.0987 31.107 16.5443 32.4056ZM25.0013 28.0114C25.0011 27.4135 25.1916 26.7635 25.4511 26.1556C26.0055 24.857 26.875 23.75 26.875 23.75C26.875 23.75 27.7053 24.8969 28.2613 26.1565C28.5409 26.7901 28.7511 27.4523 28.7513 28.0114C28.7516 29.1097 27.9125 30 26.8769 30C25.8414 30 25.0016 29.1097 25.0013 28.0114ZM22.8129 32.4056C22.5534 33.0135 22.3629 33.6635 22.3631 34.2614C22.3634 35.3597 23.2031 36.25 24.2387 36.25C25.2742 36.25 26.1134 35.3597 26.1131 34.2614C26.1129 33.7023 25.9027 33.0401 25.623 32.4065C25.0671 31.1469 24.2368 30 24.2368 30C24.2368 30 23.3673 31.107 22.8129 32.4056Z" fill="currentColor"/>
</svg>
