<svg width="40" height="40" viewBox="0 0 40 40" fill="none" xmlns="http://www.w3.org/2000/svg">
<path fill-rule="evenodd" clip-rule="evenodd" d="M17.4931 20.0015L11.1013 23.74L6.03469 21.4143L4.99463 23.7022L8.4523 25.2894L6.55039 26.4018L7.78825 28.5738L9.68984 27.4616L9.31788 31.2881L11.7938 31.5196L12.3388 25.9122L18.7337 22.172V29.691L14.2088 32.9752L15.6772 34.9984L18.7337 32.7801V35H21.2337V32.78L24.2903 34.9984L25.7587 32.9752L21.2337 29.6909V22.1893L27.6428 25.9379L28.1879 31.5458L30.6638 31.3144L30.2918 27.4873L32.1938 28.5997L33.4317 26.4277L31.5299 25.3154L34.9871 23.7285L33.947 21.4406L28.8809 23.7661L22.4446 20.0015L28.8611 16.2485L33.9606 18.5894L35.0007 16.3015L31.5101 14.6992L33.4342 13.5738L32.1963 11.4018L30.309 12.5056L30.6774 8.7156L28.2015 8.48411L27.66 14.055L21.2337 17.8137V10.3344L25.7878 7.02909L24.3193 5.00582L21.2337 7.24536V5H18.7337V7.20307L15.7063 5.00582L14.2378 7.02909L18.7337 10.2921V17.831L12.3585 14.1023L11.8098 8.45812L9.33395 8.6896L9.70948 12.5529L7.78574 11.4277L6.54788 13.5997L8.4351 14.7036L5.01069 16.2755L6.05076 18.5634L11.0841 16.2529L17.4931 20.0015Z" fill="#252422"/>
</svg>
