<svg width="32" height="32" viewBox="0 0 32 32" fill="none" xmlns="http://www.w3.org/2000/svg">
<path d="M16.8827 19.5781V14.3636C16.8827 14.0743 16.7641 13.7968 16.553 13.5922C16.3418 13.3876 16.0554 13.2727 15.7568 13.2727C15.4582 13.2727 15.1718 13.3876 14.9607 13.5922C14.7495 13.7968 14.6309 14.0743 14.6309 14.3636V19.5781C14.2906 19.7685 14.0076 20.0419 13.8101 20.371C13.6126 20.7002 13.5074 21.0737 13.505 21.4545C13.505 22.0331 13.7423 22.5881 14.1646 22.9973C14.5868 23.4064 15.1596 23.6363 15.7568 23.6363C16.354 23.6363 16.9268 23.4064 17.3491 22.9973C17.7714 22.5881 18.0086 22.0331 18.0086 21.4545C18.0063 21.0737 17.9011 20.7002 17.7036 20.371C17.506 20.0419 17.2231 19.7685 16.8827 19.5781ZM20.8234 17.0909V8.90908C20.8234 7.60711 20.2896 6.35847 19.3394 5.43784C18.3893 4.5172 17.1006 4 15.7568 4C14.4131 4 13.1244 4.5172 12.1742 5.43784C11.2241 6.35847 10.6903 7.60711 10.6903 8.90908V17.0909C9.91208 17.9453 9.3776 18.9817 9.13968 20.0977C8.90176 21.2136 8.96864 22.3704 9.33372 23.4536C9.6988 24.5369 10.3494 25.509 11.2212 26.2738C12.093 27.0387 13.1558 27.5697 14.3044 27.8145C14.7816 27.9199 15.2678 27.9819 15.7568 27.9999C17.0636 28.0058 18.344 27.6444 19.443 26.9594C20.542 26.2744 21.4124 25.2952 21.9487 24.1406C22.4849 22.986 22.664 21.7054 22.4643 20.4541C22.2646 19.2029 21.6946 18.0346 20.8234 17.0909ZM18.5716 24.8036C17.6758 25.5732 16.5011 25.9665 15.306 25.8969C14.1109 25.8273 12.9933 25.3006 12.199 24.4327C11.4047 23.5647 10.9988 22.4265 11.0706 21.2686C11.1424 20.1106 11.686 19.0277 12.5818 18.2581C12.6882 18.1571 12.7728 18.0366 12.8308 17.9037C12.8888 17.7707 12.9189 17.6279 12.9195 17.4836V8.90908C12.9195 8.18576 13.2161 7.49207 13.744 6.98061C14.2718 6.46915 14.9878 6.18181 15.7343 6.18181C16.4808 6.18181 17.1968 6.46915 17.7246 6.98061C18.2525 7.49207 18.5491 8.18576 18.5491 8.90908V17.5709C18.5497 17.7152 18.5799 17.858 18.6378 17.9909C18.6958 18.1239 18.7804 18.2444 18.8868 18.3454C19.347 18.7762 19.7072 19.297 19.9434 19.8733C20.1796 20.4495 20.2863 21.0679 20.2565 21.6872C20.2266 22.3065 20.0609 22.9126 19.7704 23.465C19.4799 24.0174 19.0712 24.5035 18.5716 24.8908V24.8036Z" fill="#E1999F"/>
</svg>
