<svg width="40" height="40" viewBox="0 0 40 40" fill="none" xmlns="http://www.w3.org/2000/svg">
<path fill-rule="evenodd" clip-rule="evenodd" d="M2.5 16.25C2.5 22.6774 6.75297 28.0747 12.5 29.5813V26.9714C8.19076 25.5364 5 21.3322 5 16.25C5 9.95058 9.90224 5 15.7604 5C20.7298 5 25.0114 8.56255 26.1961 13.4889L26.1998 13.4874C26.3671 14.1709 26.4738 14.8796 26.5135 15.6068C27.2924 15.2165 28.159 15 29.0616 15C32.2566 15 35 17.712 35 21.25C35 24.7632 32.2949 27.4619 29.1287 27.4996V27.5H28.75V29.9941C28.8534 29.998 28.9573 30 29.0616 30C33.722 30 37.5 26.0825 37.5 21.25C37.5 16.4175 33.722 12.5 29.0616 12.5C28.8818 12.5 28.7033 12.5058 28.5263 12.5173C26.9576 6.73721 21.8362 2.5 15.7604 2.5C8.43686 2.5 2.5 8.65608 2.5 16.25ZM21.46 20.5566L16.4599 28.0566L15.1643 30H17.5H21.3053L17.32 35.5181L19.3467 36.9819L24.7634 29.4819L26.1947 27.5H23.75H19.8357L23.5401 21.9434L21.46 20.5566Z" fill="#252422"/>
</svg>
