<svg width="32" height="32" viewBox="0 0 32 32" fill="none" xmlns="http://www.w3.org/2000/svg">
<path fill-rule="evenodd" clip-rule="evenodd" d="M13.5764 9.04549L13.5764 9.03806L6.45731 9.03797L13.2861 6.55956L13.2854 6.55752C13.4162 6.5244 13.5515 6.51262 13.6862 6.52271C13.704 6.52404 13.7217 6.52575 13.7395 6.52785L13.7397 6.52788C13.9247 6.54976 14.1025 6.61264 14.2603 6.71197L14.2603 6.71199C14.4181 6.81133 14.5519 6.94464 14.6522 7.1023L14.6524 7.10256C14.7526 7.26023 14.8167 7.43829 14.84 7.62388L14.8401 7.62423C14.8634 7.8099 14.8454 7.99846 14.7873 8.17627L14.7873 8.17641C14.7291 8.35427 14.6324 8.51692 14.5041 8.65261L14.5039 8.65273C14.3756 8.78836 14.2189 8.89365 14.0451 8.96099L14.0448 8.96112C14.0284 8.96745 14.012 8.97342 13.9954 8.97905C13.8604 9.0249 13.7187 9.04735 13.5764 9.04549ZM1 8.33208V11.5644L13.5505 11.5646C14.0272 11.5699 14.5012 11.4843 14.9473 11.3115L14.9477 11.3113C15.2873 11.1797 15.6051 10.9997 15.8917 10.7776C16.0443 10.6594 16.1881 10.5292 16.3216 10.3881L16.3217 10.388C16.706 9.98172 16.9956 9.49478 17.1696 8.96234L17.1696 8.96219C17.3436 8.42976 17.3976 7.86513 17.3278 7.30915L17.3278 7.30879C17.2579 6.75279 17.066 6.21933 16.7658 5.74698L16.7657 5.74672C16.4654 5.27432 16.0644 4.87486 15.5917 4.57725L15.5917 4.57723C15.4274 4.47381 15.2558 4.38358 15.0787 4.30712C14.7461 4.16356 14.3937 4.06855 14.0321 4.02586L14.0319 4.02583C13.4932 3.96226 12.9475 4.01639 12.4319 4.18428L12.4315 4.1832L12.3929 4.19721L12.3884 4.19875L12.3879 4.19892L12.3879 4.19904L1 8.33208ZM1 19.1554V21.7505L17.6079 27.6849L17.6077 27.6854C18.2088 27.9263 18.8553 28.031 19.5012 27.9921C19.7496 27.9771 19.9955 27.9411 20.2364 27.8847C20.6221 27.7944 20.995 27.6519 21.3447 27.4603C21.9127 27.149 22.4055 26.7156 22.7878 26.1911C23.1701 25.6665 23.4325 25.0637 23.5563 24.4256C23.6802 23.7875 23.6624 23.1298 23.5043 22.4994C23.3462 21.869 23.0516 21.2813 22.6415 20.7784C22.3891 20.4688 22.0968 20.196 21.7731 19.9667C21.571 19.8235 21.3566 19.6973 21.132 19.5897C20.5489 19.3102 19.9116 19.1633 19.2655 19.1592V19.1554L1 19.1554ZM19.2485 21.6819L8.31319 21.6819L18.5868 25.3529L18.5859 25.3555C18.8301 25.446 19.0905 25.4848 19.3506 25.4691C19.6272 25.4524 19.8968 25.3747 20.1401 25.2414C20.3833 25.1081 20.5943 24.9225 20.758 24.6979C20.9217 24.4732 21.0341 24.2151 21.0871 23.9418C21.1402 23.6686 21.1326 23.387 21.0649 23.117C20.9971 22.847 20.871 22.5954 20.6954 22.38C20.5198 22.1647 20.2991 21.9909 20.049 21.871C19.7992 21.7513 19.5263 21.6884 19.2496 21.6866L19.2485 21.6866L19.2485 21.6862L19.2485 21.6819ZM24.9175 9.36602L24.9164 9.36665L23.6795 7.16692L23.678 7.16438L23.6805 7.16298C24.3502 6.78336 25.0977 6.56303 25.8654 6.51894C25.9767 6.51255 26.0881 6.50989 26.1993 6.51093C26.8555 6.51707 27.5053 6.65217 28.1117 6.9098C28.8208 7.21108 29.4516 7.67187 29.9556 8.25668C30.4595 8.8415 30.8232 9.53473 31.0184 10.283C31.2137 11.0312 31.2354 11.8145 31.0819 12.5725C30.9284 13.3305 30.6037 14.043 30.133 14.6551C29.7305 15.1785 29.2303 15.6165 28.6616 15.9453C28.5652 16.0011 28.4668 16.0537 28.3666 16.103C27.6752 16.4435 26.9153 16.62 26.1454 16.6189V16.6185H1V14.0922H26.1489L26.1489 14.0895C26.5335 14.09 26.9131 14.0019 27.2585 13.8318C27.6038 13.6617 27.9057 13.4143 28.1408 13.1085C28.376 12.8028 28.5382 12.4468 28.6149 12.0682C28.6916 11.6895 28.6807 11.2983 28.5832 10.9245C28.4856 10.5507 28.304 10.2044 28.0522 9.91229C27.8005 9.62015 27.4854 9.38997 27.1311 9.23947C26.7769 9.08897 26.393 9.02218 26.009 9.04423C25.6255 9.06625 25.2521 9.17634 24.9175 9.36602Z" fill="#3F3B3E"/>
</svg>
